<svg xmlns="http://www.w3.org/2000/svg" viewBox="0 0 97.57 115.65" role="img" aria-label="Zehnox"><path fill="#cefd21" d="M96.01 9.87L58.15 75.45C55.07 75 51.95 74.78 48.78 74.78C48.24 74.78 47.71 74.79 47.17 74.8C46.18 74.83 45.19 74.87 44.21 74.94L72.36 26.19C66.34 28.55 59.94 29.98 53.35 30.43C53.26 30.44 53.17 30.45 53.08 30.45C52.74 30.48 52.39 30.5 52.04 30.51C51.91 30.52 51.77 30.53 51.64 30.53C51.23 30.55 50.82 30.57 50.4 30.57C49.86 30.59 49.32 30.59 48.78 30.59C48.39 30.59 47.99 30.59 47.6 30.58C47.27 30.58 46.94 30.57 46.61 30.56C46.47 30.55 46.34 30.55 46.21 30.55C45.89 30.53 45.56 30.52 45.24 30.5C44.85 30.48 44.46 30.46 44.07 30.43C43.73 30.41 43.39 30.38 43.06 30.35C42.91 30.34 42.77 30.32 42.63 30.31C42.33 30.28 42.03 30.25 41.73 30.22C41.41 30.18 41.08 30.15 40.76 30.11C40.31 30.05 39.87 30 39.42 29.93C38.48 29.79 37.54 29.64 36.6 29.46C32.7 28.72 28.88 27.63 25.21 26.2L31.85 37.7L24.74 50.02L1.55 9.87C0 7.18 0.69 3.75 3.17 1.88C5.64 -0 9.13 0.26 11.3 2.48C21.24 12.67 34.55 18.27 48.78 18.27C63.01 18.27 76.33 12.67 86.27 2.48C88.44 0.26 91.92 -0 94.4 1.87C96.88 3.75 97.57 7.18 96.01 9.87"/><path fill="#021b8c" d="M94.4 113.77C93.29 114.61 91.98 115.02 90.68 115.02C89.07 115.02 87.47 114.39 86.27 113.16C76.33 102.98 63.01 97.37 48.78 97.37C34.55 97.37 21.24 102.98 11.3 113.16C9.13 115.39 5.64 115.64 3.17 113.77C0.69 111.89 0 108.47 1.55 105.78L39.42 40.2C42.49 40.64 45.62 40.86 48.78 40.86C49.33 40.86 49.86 40.85 50.4 40.84C51.39 40.82 52.37 40.77 53.35 40.7L25.21 89.45C31.23 87.1 37.62 85.66 44.21 85.21C45.19 85.14 46.18 85.09 47.17 85.07C47.71 85.06 48.24 85.05 48.78 85.05C51.95 85.05 55.07 85.27 58.15 85.71C59.09 85.85 60.03 86.01 60.96 86.18C64.87 86.92 68.68 88.01 72.35 89.45L65.71 77.95L72.83 65.63L96.01 105.78C97.57 108.47 96.88 111.89 94.4 113.77"/></svg>