<svg xmlns="http://www.w3.org/2000/svg" viewBox="0 0 325.47 67.23" role="img" aria-label="Zehnox"><path fill="#f2f4f5" d="M74.54 22.37L99.97 22.37L73.26 44.24C72.31 45.02 71.76 46.18 71.76 47.4L71.76 47.41C71.76 49.08 73.11 50.43 74.78 50.43L107.17 50.43C108.7 50.43 109.95 49.18 109.95 47.64C109.95 46.11 108.7 44.86 107.17 44.86L81.58 44.86L108.44 23C109.4 22.22 109.95 21.05 109.95 19.82C109.95 18.15 108.6 16.8 106.93 16.8L74.54 16.8C73 16.8 71.76 18.05 71.76 19.59C71.76 21.13 73 22.37 74.54 22.37"/><path fill="#f2f4f5" d="M116.47 22.38L143.96 22.38C145.5 22.38 146.75 21.13 146.75 19.59L146.75 19.59C146.75 18.05 145.5 16.8 143.96 16.8L116.47 16.8C114.93 16.8 113.69 18.05 113.69 19.59L113.69 19.59C113.69 21.13 114.93 22.38 116.47 22.38"/><path fill="#f2f4f5" d="M119.91 36.08L142.83 36.08C144.37 36.08 145.62 34.83 145.62 33.29C145.62 31.75 144.37 30.51 142.83 30.51L116.71 30.51C115.04 30.51 113.69 31.86 113.69 33.53L113.69 47.41C113.69 49.08 115.04 50.43 116.71 50.43L143.96 50.43C145.5 50.43 146.75 49.18 146.75 47.65C146.75 46.11 145.5 44.86 143.96 44.86L119.91 44.86Z"/><path fill="#f2f4f5" d="M183.11 30.5L156.71 30.5L156.71 19.91C156.71 18.2 155.31 16.8 153.59 16.8L153.59 16.8C151.88 16.8 150.48 18.2 150.48 19.91L150.48 47.32C150.48 49.04 151.88 50.43 153.59 50.43L153.59 50.43C155.31 50.43 156.71 49.04 156.71 47.32L156.71 36.08L183.11 36.08L183.11 47.32C183.11 49.04 184.5 50.43 186.22 50.43C187.94 50.43 189.33 49.04 189.33 47.32L189.33 19.91C189.33 18.2 187.94 16.8 186.22 16.8C184.5 16.8 183.11 18.2 183.11 19.91Z"/><path fill="#f2f4f5" d="M228.65 42L199.86 17.76C199.12 17.14 198.19 16.8 197.23 16.8L196.09 16.8C194.42 16.8 193.07 18.15 193.07 19.82L193.07 47.32C193.07 49.04 194.46 50.43 196.18 50.43C197.9 50.43 199.29 49.04 199.29 47.32L199.29 25.03L228.07 49.46C228.81 50.09 229.75 50.43 230.72 50.43L231.85 50.43C233.52 50.43 234.87 49.08 234.87 47.41L234.87 19.91C234.87 18.2 233.48 16.8 231.76 16.8C230.04 16.8 228.65 18.2 228.65 19.91Z"/><path fill="#f2f4f5" d="M273.21 34.02C273.21 36.28 273.13 38.17 272.97 39.65C272.82 41.03 272.55 42.13 272.17 42.92C271.84 43.61 271.37 44.11 270.75 44.44C270.05 44.82 269.1 45.07 267.93 45.19C266.64 45.32 265.02 45.39 263.13 45.39L254.91 45.39C253.02 45.39 251.4 45.32 250.12 45.19C248.94 45.07 247.99 44.82 247.29 44.44C246.67 44.11 246.2 43.61 245.87 42.92C245.49 42.13 245.22 41.03 245.07 39.65C244.91 38.18 244.83 36.29 244.83 34.02L244.83 33.21C244.83 30.86 244.91 28.92 245.07 27.42C245.22 26.01 245.49 24.9 245.87 24.13C246.2 23.47 246.65 22.99 247.26 22.69C247.96 22.34 248.92 22.12 250.1 22.01C251.39 21.9 253.01 21.84 254.91 21.84L263.13 21.84C265.03 21.84 266.65 21.9 267.94 22.01C269.13 22.12 270.08 22.34 270.78 22.69C271.39 22.99 271.85 23.47 272.18 24.13C272.56 24.91 272.82 26.01 272.97 27.42C273.13 28.92 273.21 30.87 273.21 33.21ZM279.43 34.02L279.43 33.21C279.43 30.39 279.29 27.99 279.01 26.06C278.72 24.04 278.2 22.36 277.47 21.06C276.7 19.69 275.63 18.63 274.29 17.9C273.02 17.21 271.43 16.74 269.56 16.49C267.77 16.27 265.61 16.15 263.13 16.15L254.91 16.15C252.43 16.15 250.27 16.27 248.48 16.49C246.61 16.74 245.02 17.21 243.75 17.9C242.41 18.63 241.34 19.69 240.57 21.06C239.84 22.36 239.32 24.04 239.03 26.06C238.75 27.99 238.61 30.39 238.61 33.21L238.61 34.02C238.61 37.45 238.84 40.28 239.3 42.44C239.78 44.74 240.67 46.56 241.93 47.83C243.19 49.1 244.94 49.98 247.13 50.44C249.17 50.86 251.79 51.08 254.91 51.08L263.13 51.08C266.25 51.08 268.87 50.86 270.91 50.44C273.1 49.98 274.85 49.1 276.11 47.83C277.37 46.56 278.26 44.74 278.75 42.44C279.2 40.28 279.43 37.44 279.43 34.02"/><path fill="#f2f4f5" d="M305.75 32.75L322.93 16.8L313.99 16.8L301.19 28.67L287.99 16.8L278.98 16.8L296.78 32.77L277.75 50.43L286.69 50.43L301.32 36.85L316.46 50.43L325.47 50.43Z"/><path fill="#cefd21" d="M55.82 5.74L33.81 43.86C32.02 43.6 30.2 43.48 28.36 43.48C28.05 43.48 27.74 43.48 27.43 43.49C26.85 43.5 26.27 43.53 25.7 43.57L42.07 15.23C38.57 16.6 34.85 17.43 31.02 17.69C30.97 17.7 30.91 17.7 30.86 17.7C30.66 17.72 30.46 17.73 30.26 17.74C30.18 17.74 30.1 17.75 30.02 17.75C29.78 17.76 29.54 17.77 29.3 17.78C28.99 17.78 28.68 17.79 28.36 17.79C28.13 17.79 27.9 17.78 27.67 17.78C27.48 17.78 27.29 17.77 27.1 17.77C27.02 17.76 26.94 17.76 26.86 17.76C26.68 17.75 26.49 17.74 26.3 17.73C26.07 17.72 25.85 17.71 25.62 17.69C25.42 17.68 25.23 17.66 25.03 17.64C24.95 17.64 24.87 17.63 24.78 17.62C24.61 17.61 24.44 17.59 24.26 17.57C24.08 17.55 23.88 17.53 23.7 17.5C23.44 17.47 23.18 17.44 22.92 17.4C22.37 17.32 21.82 17.23 21.28 17.13C19.01 16.7 16.79 16.06 14.66 15.23L18.52 21.92L14.38 29.08L0.9 5.74C0 4.17 0.4 2.18 1.84 1.09C3.28 -0 5.31 0.15 6.57 1.44C12.35 7.36 20.09 10.62 28.36 10.62C36.64 10.62 44.37 7.36 50.16 1.44C51.42 0.15 53.44 -0 54.88 1.09C56.32 2.18 56.72 4.17 55.82 5.74"/><path fill="#f2f4f5" d="M54.88 66.14C54.24 66.63 53.48 66.87 52.72 66.87C51.78 66.87 50.85 66.5 50.15 65.79C44.37 59.87 36.63 56.61 28.36 56.61C20.09 56.61 12.35 59.87 6.57 65.79C5.31 67.08 3.28 67.23 1.84 66.14C0.4 65.05 0 63.06 0.9 61.5L22.92 23.37C24.71 23.63 26.52 23.76 28.36 23.76C28.68 23.76 28.99 23.75 29.3 23.75C29.88 23.73 30.45 23.7 31.02 23.66L14.65 52.01C18.16 50.64 21.87 49.8 25.7 49.54C26.27 49.5 26.85 49.47 27.42 49.46C27.74 49.45 28.05 49.45 28.36 49.45C30.2 49.45 32.02 49.57 33.81 49.83C34.35 49.91 34.9 50 35.44 50.1C37.71 50.53 39.93 51.17 42.06 52L38.2 45.32L42.34 38.15L55.82 61.5C56.72 63.06 56.32 65.05 54.88 66.14"/><path fill="#cefd21" d="M193.85 55.95L199.77 55.95L199.77 57.26L195.35 57.26L195.35 60.78L199.11 60.78L199.11 62.09L195.35 62.09L195.35 66.69L193.85 66.69Z"/><path fill="#cefd21" d="M200.76 58.99L202.19 58.99L202.19 60.33C202.19 60.65 202.15 60.91 202.15 60.91L202.19 60.91C202.54 59.78 203.43 58.9 204.62 58.9C204.82 58.9 205 58.93 205 58.93L205 60.39C205 60.39 204.8 60.34 204.57 60.34C203.63 60.34 202.76 61.01 202.41 62.15C202.28 62.6 202.23 63.07 202.23 63.54L202.23 66.69L200.76 66.69Z"/><path fill="#cefd21" d="M209.4 65.59C210.86 65.59 212.04 64.44 212.04 62.82C212.04 61.23 210.86 60.09 209.4 60.09C207.95 60.09 206.75 61.23 206.75 62.82C206.75 64.44 207.95 65.59 209.4 65.59M209.4 58.81C211.69 58.81 213.55 60.5 213.55 62.82C213.55 65.17 211.69 66.87 209.4 66.87C207.1 66.87 205.24 65.17 205.24 62.82C205.24 60.5 207.1 58.81 209.4 58.81"/><path fill="#cefd21" d="M214.69 58.99L216.12 58.99L216.12 60.01C216.12 60.31 216.09 60.57 216.09 60.57L216.12 60.57C216.49 59.67 217.57 58.81 218.77 58.81C220.06 58.81 220.82 59.4 221.08 60.56L221.11 60.56C221.54 59.63 222.6 58.81 223.85 58.81C225.58 58.81 226.39 59.8 226.39 61.76L226.39 66.69L224.91 66.69L224.91 62.08C224.91 61 224.7 60.15 223.54 60.15C222.46 60.15 221.66 61.06 221.38 62.11C221.31 62.43 221.28 62.78 221.28 63.17L221.28 66.69L219.8 66.69L219.8 62.08C219.8 61.07 219.65 60.15 218.46 60.15C217.34 60.15 216.55 61.07 216.26 62.17C216.18 62.47 216.17 62.82 216.17 63.17L216.17 66.69L214.69 66.69Z"/><path fill="#cefd21" d="M232.12 55.95L233.71 55.95L236.17 61.76C236.41 62.35 236.7 63.2 236.7 63.2L236.73 63.2C236.73 63.2 237.02 62.35 237.27 61.76L239.73 55.95L241.31 55.95L242.18 66.69L240.69 66.69L240.16 59.92C240.11 59.26 240.14 58.34 240.14 58.34L240.11 58.34C240.11 58.34 239.79 59.32 239.53 59.92L237.39 64.76L236.05 64.76L233.92 59.92C233.67 59.34 233.34 58.31 233.34 58.31L233.31 58.31C233.31 58.31 233.33 59.26 233.28 59.92L232.76 66.69L231.26 66.69Z"/><path fill="#cefd21" d="M243.85 58.99L245.33 58.99L245.33 66.69L243.85 66.69ZM243.84 55.95L245.33 55.95L245.33 57.45L243.84 57.45Z"/><path fill="#cefd21" d="M247.03 58.99L248.46 58.99L248.46 60.01C248.46 60.31 248.43 60.57 248.43 60.57L248.46 60.57C248.77 59.9 249.68 58.81 251.35 58.81C253.16 58.81 254 59.8 254 61.76L254 66.69L252.52 66.69L252.52 62.09C252.52 61.01 252.3 60.16 251.06 60.16C249.89 60.16 248.95 60.94 248.63 62.05C248.54 62.35 248.51 62.7 248.51 63.08L248.51 66.69L247.03 66.69Z"/><path fill="#cefd21" d="M258.78 65.59C259.92 65.59 261 64.79 261 62.82C261 61.45 260.28 60.09 258.82 60.09C257.6 60.09 256.6 61.09 256.6 62.84C256.6 64.51 257.5 65.59 258.78 65.59M258.58 58.81C260.36 58.81 260.95 60.02 260.95 60.02L260.98 60.02C260.98 60.02 260.95 59.8 260.95 59.51L260.95 55.95L262.43 55.95L262.43 66.69L261.03 66.69L261.03 65.96C261.03 65.65 261.04 65.44 261.04 65.44L261.01 65.44C261.01 65.44 260.39 66.87 258.49 66.87C256.4 66.87 255.1 65.23 255.1 62.84C255.1 60.39 256.54 58.81 258.58 58.81"/><path fill="#cefd21" d="M267.75 60.28L266.75 60.28L266.75 59.1L267.8 59.1L267.8 56.88L269.23 56.88L269.23 59.1L271.08 59.1L271.08 60.28L269.23 60.28L269.23 63.71C269.23 65.24 270.31 65.44 270.87 65.44C271.08 65.44 271.22 65.41 271.22 65.41L271.22 66.72C271.22 66.72 271.01 66.75 270.7 66.75C269.71 66.75 267.75 66.44 267.75 63.87Z"/><path fill="#cefd21" d="M275.86 65.59C277.32 65.59 278.51 64.44 278.51 62.82C278.51 61.23 277.32 60.09 275.86 60.09C274.41 60.09 273.21 61.23 273.21 62.82C273.21 64.44 274.41 65.59 275.86 65.59M275.86 58.81C278.16 58.81 280.01 60.5 280.01 62.82C280.01 65.17 278.16 66.87 275.86 66.87C273.56 66.87 271.71 65.17 271.71 62.82C271.71 60.5 273.56 58.81 275.86 58.81"/><path fill="#cefd21" d="M291.15 55.95L293.25 63.83C293.4 64.42 293.48 64.97 293.48 64.97L293.51 64.97C293.51 64.97 293.55 64.41 293.7 63.83L295.68 55.95L297.23 55.95L294.42 66.69L292.67 66.69L290.81 59.72C290.63 59.04 290.49 58.2 290.49 58.2L290.46 58.2C290.46 58.2 290.33 59.04 290.14 59.72L288.29 66.69L286.54 66.69L283.8 55.95L285.35 55.95L287.25 63.83C287.39 64.41 287.45 64.97 287.45 64.97L287.48 64.97C287.48 64.97 287.56 64.42 287.71 63.83L289.81 55.95Z"/><path fill="#cefd21" d="M301.57 65.59C303.03 65.59 304.22 64.44 304.22 62.82C304.22 61.23 303.03 60.09 301.57 60.09C300.12 60.09 298.92 61.23 298.92 62.82C298.92 64.44 300.12 65.59 301.57 65.59M301.57 58.81C303.87 58.81 305.72 60.5 305.72 62.82C305.72 65.17 303.87 66.87 301.57 66.87C299.27 66.87 297.42 65.17 297.42 62.82C297.42 60.5 299.27 58.81 301.57 58.81"/><path fill="#cefd21" d="M306.86 58.99L308.29 58.99L308.29 60.33C308.29 60.65 308.26 60.91 308.26 60.91L308.29 60.91C308.64 59.78 309.54 58.9 310.73 58.9C310.93 58.9 311.11 58.93 311.11 58.93L311.11 60.39C311.11 60.39 310.91 60.34 310.68 60.34C309.74 60.34 308.87 61.01 308.52 62.15C308.38 62.6 308.34 63.07 308.34 63.54L308.34 66.69L306.86 66.69Z"/><path fill="#cefd21" d="M311.87 55.95L313.34 55.95L313.34 64.33C313.34 65.26 313.71 65.42 314.17 65.42C314.3 65.42 314.42 65.41 314.42 65.41L314.42 66.72C314.42 66.72 314.2 66.75 313.94 66.75C313.1 66.75 311.87 66.52 311.87 64.59Z"/><path fill="#cefd21" d="M318.56 65.59C319.7 65.59 320.78 64.79 320.78 62.82C320.78 61.45 320.07 60.09 318.61 60.09C317.39 60.09 316.39 61.09 316.39 62.84C316.39 64.51 317.28 65.59 318.56 65.59M318.36 58.81C320.14 58.81 320.74 60.02 320.74 60.02L320.77 60.02C320.77 60.02 320.74 59.8 320.74 59.51L320.74 55.95L322.21 55.95L322.21 66.69L320.81 66.69L320.81 65.96C320.81 65.65 320.83 65.44 320.83 65.44L320.8 65.44C320.8 65.44 320.17 66.87 318.27 66.87C316.19 66.87 314.88 65.23 314.88 62.84C314.88 60.39 316.33 58.81 318.36 58.81"/><path fill="#cefd21" d="M323.92 65.12L325.47 65.12L325.47 66.69L323.92 66.69Z"/></svg>